<svg id="visual" viewBox="0 0 1920 150" width="1920" height="150" xmlns="http://www.w3.org/2000/svg" xmlns:xlink="http://www.w3.org/1999/xlink" version="1.1"><path d="M0 38L137 33L274 49L411 58L549 51L686 33L823 65L960 69L1097 44L1234 47L1371 35L1509 39L1646 61L1783 35L1920 32L1920 151L1783 151L1646 151L1509 151L1371 151L1234 151L1097 151L960 151L823 151L686 151L549 151L411 151L274 151L137 151L0 151Z" fill="#49638a"></path><path d="M0 75L137 89L274 73L411 74L549 75L686 90L823 96L960 82L1097 64L1234 79L1371 85L1509 80L1646 99L1783 84L1920 67L1920 151L1783 151L1646 151L1509 151L1371 151L1234 151L1097 151L960 151L823 151L686 151L549 151L411 151L274 151L137 151L0 151Z" fill="#334157"></path><path d="M0 98L137 103L274 97L411 108L549 97L686 118L823 98L960 118L1097 113L1234 115L1371 111L1509 99L1646 125L1783 123L1920 116L1920 151L1783 151L1646 151L1509 151L1371 151L1234 151L1097 151L960 151L823 151L686 151L549 151L411 151L274 151L137 151L0 151Z" fill="#1e2228"></path></svg>