<svg id="visual" viewBox="0 0 2500 100" width="2500" height="100" xmlns="http://www.w3.org/2000/svg" xmlns:xlink="http://www.w3.org/1999/xlink" version="1.1"><path d="M0 59L179 26L357 31L536 43L714 22L893 49L1071 52L1250 13L1429 55L1607 23L1786 24L1964 59L2143 0L2321 9L2500 4L2500 101L2321 101L2143 101L1964 101L1786 101L1607 101L1429 101L1250 101L1071 101L893 101L714 101L536 101L357 101L179 101L0 101Z" fill="#49638a"></path><path d="M0 55L179 55L357 24L536 58L714 78L893 69L1071 41L1250 78L1429 52L1607 54L1786 29L1964 82L2143 83L2321 67L2500 48L2500 101L2321 101L2143 101L1964 101L1786 101L1607 101L1429 101L1250 101L1071 101L893 101L714 101L536 101L357 101L179 101L0 101Z" fill="#334157"></path><path d="M0 90L179 73L357 81L536 56L714 92L893 79L1071 93L1250 89L1429 62L1607 75L1786 98L1964 66L2143 66L2321 91L2500 53L2500 101L2321 101L2143 101L1964 101L1786 101L1607 101L1429 101L1250 101L1071 101L893 101L714 101L536 101L357 101L179 101L0 101Z" fill="#1e2228"></path></svg>